<svg width="25" height="25" viewBox="0 0 25 25" fill="none" xmlns="http://www.w3.org/2000/svg">
    <g clip-path="url(#clip0_115_1301)">
        <path
            d="M24.2663 12.9166C24.2663 12.1008 24.2001 11.2807 24.059 10.4782H12.7402V15.0992H19.222C18.953 16.5895 18.0888 17.9079 16.8233 18.7457V21.7441H20.6903C22.9611 19.654 24.2663 16.5675 24.2663 12.9166Z"
            fill="#4285F4" />
        <path
            d="M12.74 24.641C15.9764 24.641 18.7058 23.5783 20.6944 21.744L16.8274 18.7457C15.7516 19.4776 14.3626 19.8921 12.7444 19.8921C9.61376 19.8921 6.95934 17.78 6.00693 14.9404H2.01648V18.0314C4.05359 22.0835 8.20278 24.641 12.74 24.641Z"
            fill="#34A853" />
        <path
            d="M6.00277 14.9404C5.50011 13.4501 5.50011 11.8362 6.00277 10.3459V7.25494H2.01674C0.314734 10.6457 0.314734 14.6406 2.01674 18.0314L6.00277 14.9404Z"
            fill="#FBBC04" />
        <path
            d="M12.74 5.3898C14.4508 5.36334 16.1043 6.0071 17.3433 7.1888L20.7694 3.76275C18.6 1.72564 15.7207 0.605671 12.74 0.640945C8.20277 0.640945 4.05359 3.19836 2.01648 7.25494L6.00252 10.3459C6.95052 7.50187 9.60935 5.3898 12.74 5.3898Z"
            fill="#EA4335" />
    </g>
    <defs>
        <clipPath id="clip0_115_1301">
            <rect width="24" height="24" fill="white" transform="translate(0.5 0.640137)" />
        </clipPath>
    </defs>
</svg>