<svg width="50" height="49" viewBox="0 0 50 49" fill="none" xmlns="http://www.w3.org/2000/svg">
    <rect x="0.327454" width="49.3451" height="48.6402" rx="14.0986"
        fill="url(#paint0_linear_15_18649)" />
    <path
        d="M22.1834 26.4778C21.6853 26.1415 21.1161 25.9719 20.4843 25.9719C19.8949 25.9719 19.2898 26.2034 18.7853 26.5265V16.5021C18.7853 16.2034 18.8825 15.9696 19.0753 15.7769C19.268 15.5841 19.5018 15.4869 19.8005 15.4869H21.1682C21.4669 15.4869 21.7006 15.5841 21.8934 15.7769C22.0862 15.9696 22.1834 16.2034 22.1834 16.5021V26.4778ZM28.7043 27.1016L25.3062 30.4997V10.6304C25.3062 10.3316 25.4034 10.0979 25.5962 9.90513C25.7889 9.71236 26.0227 9.61516 26.3214 9.61516H27.6891C27.9878 9.61516 28.2215 9.71236 28.4143 9.90513C28.6071 10.0979 28.7043 10.3316 28.7043 10.6304V27.1016ZM15.8439 28.289L12.4458 31.6871V22.1437C12.4458 21.845 12.543 21.6113 12.7358 21.4185C12.9286 21.2257 13.1623 21.1285 13.4611 21.1285H14.8287C15.1275 21.1285 15.3612 21.2257 15.554 21.4185C15.7467 21.6113 15.8439 21.845 15.8439 22.1437V28.289Z"
        stroke="white" stroke-width="0.70493" />
    <path d="M11.978 37.6476L20.575 30.0655L24.1733 37.6476L35.8678 25.6962" stroke="white"
        stroke-width="3.41918" stroke-linecap="round" stroke-linejoin="round" />
    <path d="M31.8837 23.2542L38.0218 23.2542L38.0218 29.3922" stroke="white" stroke-width="2.73534"
        stroke-linecap="round" stroke-linejoin="round" />
    <path fill-rule="evenodd" clip-rule="evenodd"
        d="M36.469 33.8344C37.2442 34.3739 37.4352 35.4397 36.8957 36.2149L34.4294 38.6439C33.8899 39.4191 32.8241 39.6102 32.0489 39.0706C31.2737 38.5311 31.0826 37.4653 31.6221 36.6901L34.0884 34.2611C34.628 33.4859 35.6938 33.2948 36.469 33.8344Z"
        stroke="white" stroke-width="0.70493" stroke-linecap="round" stroke-linejoin="round" />
    <defs>
        <linearGradient id="paint0_linear_15_18649" x1="-3.54966" y1="52.1648" x2="70.468"
            y2="-6.34439" gradientUnits="userSpaceOnUse">
            <stop stop-color="#2196F3" />
            <stop offset="1" stop-color="#ADC4D7" />
        </linearGradient>
    </defs>
</svg>